<svg fill="none" xmlns="http://www.w3.org/2000/svg" viewBox="0 0 40 52">
  <path d="M25.96 20.95a4.8 4.8 0 00-5.08-.26c-.62.34-1.16.8-1.58 1.38a.62.62 0 00.6.98.62.62 0 00.4-.25 3.58 3.58 0 011.96-1.32.12.12 0 01.1.1c0 .02 0 .04-.02.06a1.24 1.24 0 001.02 1.74 1.26 1.26 0 001.34-.9c.06-.2.06-.39.03-.58a.12.12 0 01.04-.12.12.12 0 01.13-.01l.34.2a.63.63 0 00.89-.84.62.62 0 00-.17-.18z" fill="#6f7a96"></path>
  <path d="M32.6 29.64l.6-5.38c.34-3.03.21-6 .07-7.8a.88.88 0 01.79-.95l.92-.1 5.02-.53c-.25-1.01-2.4-1.47-5.72-1.41-3.73.07-8.93.8-14.58 2.17-8.56 2.06-14.61 4.4-16.78 6.57-.53.53 2.05 4.98 2.38 5.65a38.39 38.39 0 012.52 7.96c.41 1.87.68 3.78.81 5.7a.9.9 0 00.32.63l10.6 8.95a.32.32 0 00.44-.02l4.13-4.24a.35.35 0 01.46-.03l3.64 2.72a.32.32 0 00.49-.14.31.31 0 000-.2l-1.03-4.13c-.23-.9-.3-1.83-.23-2.76l.05-.6c2.5-.53 4.17-1.72 4.2-3.19l.36-3.55a.55.55 0 01.59-.5 3.67 3.67 0 003.92-2.52.3.3 0 00-.16-.38.31.31 0 00-.14-.03c-1.16.04-1.91-1.13-3.67-1.89zm-1.76 4.5c-.03.33-.18.65-.41.9-.3.3-.69.51-1.11.6-.43.07-.86.1-1.3.09a.58.58 0 00-.59.54.57.57 0 00.55.6h.09c.09 0 .25 0 .45-.02a1.33 1.33 0 011.44 1.61 2.52 2.52 0 01-1.69 1.85c-1.02.34-2.33.56-3.84.56-2.59 0-5-.71-5.82-1.71l-3.91-5.14a.6.6 0 00-.76-.17.57.57 0 00-.17.84l3.94 5.18c.74.9 2.22 1.57 4.04 1.91.7.16 1.43.52 2.09.93 1.47.92.48 3.18-1.2 2.73a2.77 2.77 0 01-.22-.06L10.5 41.3a1.2 1.2 0 01-.8-1.01 41 41 0 00-.74-4.73 50.4 50.4 0 00-.93-3.64c-.11-.38.38-.65.64-.35l.08.08a3.24 3.24 0 004.6-.19.58.58 0 00-.02-.81.58.58 0 00-.84.05c-.1.12-.21.24-.35.32-.9.55-1.93.42-2.6-.2l-2.97-3.35a2.73 2.73 0 011.6-4.72 2.76 2.76 0 012.2.74 3 3 0 011 1.9s.17 2.51 2.18 2.51c1.1 0 2-.92 2.15-2.13l.24-3.5a5.42 5.42 0 014.15-4.9l.04-.02c1.38-.33 2.72-.6 3.95-.79 1.37-.22 2.63-.35 3.7-.4l3.3-.33a.87.87 0 01.86.46c.05.1.08.21.1.32.06.85.12 1.95.13 3.18a4.3 4.3 0 00-4.08 1.54l-.01.02a.56.56 0 00-.12.44v.02c.01.08.27 1.9.48 2.71.5 1.86.91 2.7 1.21 3.3.2.39.32.64.4 1.02a.4.4 0 01-.2.44 2.02 2.02 0 01-1.44.17c-.74-.18-1.83-.14-3.21.74-2.57 1.62-4.2 2.54-6.18 2.52a.31.31 0 00-.31.3c0 .05 0 .1.04.15.8 1.45 3.79 5.38 10.6.7a.67.67 0 01.63-.06c.3.12.6.22.87.3v.03zm.5-5.67a.16.16 0 01-.15-.1c-.1-.29-.28-.8-.42-1.08-.3-.6-.66-1.34-1.13-3.08-.12-.47-.27-1.38-.36-1.98a.56.56 0 01.19-.52c.2-.17.41-.3.65-.42.13-.06.28.04.26.19a1.13 1.13 0 001.4 1.2.24.24 0 01.3.24l-.12 1.2-.47 4.22a.15.15 0 01-.15.13z" fill="#6f7a96"></path>
  <path d="M10.06 28.47a.57.57 0 01-.52-.33s-.51-1.04-1.56-1.7a.57.57 0 01-.25-.59.57.57 0 01.44-.45c.15-.04.3 0 .43.07a5.84 5.84 0 011.98 2.18.57.57 0 01-.52.82zM34.47 1.9A30.88 30.88 0 0024.19.18C12.01.18 1.92 6.94.05 15.8c-.27 1.3.62 2.4 1.3 3.61.28.5.5.89.59 1l.04.07a20.95 20.95 0 014.21-2.44c3.59-1.67 7.78-2.99 13.06-4.26a81.44 81.44 0 0112.98-2.13 1.04 1.04 0 00.92-.72l2.26-7.16a1.5 1.5 0 00-.94-1.87zM27.9 9.18a2.95 2.95 0 01-2.72-1.8 2.91 2.91 0 012.14-4 2.95 2.95 0 013.52 2.87 2.91 2.91 0 01-2.94 2.93z" fill="#6f7a96"></path>
</svg> 