<svg class="h-5 w-5" viewBox="0 0 128 128" fill="none" xmlns="http://www.w3.org/2000/svg"> 
  <path fill="#1F1F1F" class="face" d="M5.89913 90.8654C8.0522 95.5121 10.6368 100.378 9.13098 105.618C8.06985 109.311 5.75106 112.334 5.42471 116.308C4.86915 123.072 10.8259 128.553 17.5205 127.438C23.7626 126.398 29.7626 120.467 36.339 122.014C36.9967 122.168 39.1761 122.939 44.4944 124.841C50.4386 126.967 56.7724 128 64 128C99.3462 128 128 99.3462 128 64C128 28.6538 99.3462 0 64 0C28.6538 0 0 28.6538 0 64C0 73.5861 2.11243 82.6911 5.89913 90.8654Z"></path> 
  <path stroke="#F5F5F5" class="smile" d="M86 82.6663C80.9833 89.3457 72.9962 93.6663 64 93.6663C55.0038 93.6663 47.0167 89.3457 42 82.6663" stroke-width="13" stroke-linecap="round" stroke-linejoin="round"></path> 
</svg> 